<svg viewBox="0 0 256 256" xmlns="http://www.w3.org/2000/svg"><path d="m128 28a100 100 0 1 0 100 100 100.1127 100.1127 0 0 0 -100-100zm0 192a92 92 0 1 1 92-92 92.10478 92.10478 0 0 1 -92 92zm23.10254-100.18262-39.10154 52.17676h39.999a4 4 0 0 1 0 8h-47.7793c-.07324.00391-.14746.00586-.22168.00586a4.00182 4.00182 0 0 1 -3.13281-6.48828l43.77246-58.40918a20.00419 20.00419 0 1 0 -35.06933-18.88574 3.99976 3.99976 0 0 1 -7.36719-3.11719 28.004 28.004 0 1 1 49.01367 26.55859c-.03613.05371-.07422.10743-.11328.15918z"/></svg>