<svg width="1440" height="966" viewBox="0 0 1440 966" fill="none" xmlns="http://www.w3.org/2000/svg">
<path d="M-87.4813 241.188C-390 88.0234 40.9432 -194.807 942 233.946C1226.57 331.015 1545.93 316.624 1758.39 256.104C1752.14 128.211 1735.75 31.4684 1735.75 31.4684C1735.75 31.4684 1999 -68.5821 1999 88.1142C1999 151.754 1903.69 214.716 1758.39 256.104C1767.84 449.346 1754.13 713.707 1625.75 822.93C2582.26 1118.71 -233.891 865.944 -798.449 854.96C-779.477 869.459 -757.642 884.372 -732.739 899.729C-939.742 863.609 -933.907 852.325 -798.449 854.96C-1198.06 549.584 -327.647 428.454 -106.308 233.946L-87.4813 241.188Z" fill="#BB877A"/>
</svg>
