<svg width="74" height="95" viewBox="0 0 74 95" fill="none" xmlns="http://www.w3.org/2000/svg">
<g filter="url(#filter0_d_516_2886)">
<path d="M44.928 62.192H59.136C66.304 62.192 69.888 66.2027 69.888 74.224C69.888 78.7467 68.736 81.9893 66.432 83.952C64.2133 85.8293 60.2027 86.768 54.4 86.768H19.712C13.7387 86.768 9.64267 86 7.424 84.464C5.29067 82.8427 4.224 79.4293 4.224 74.224C4.224 72.5173 4.39467 71.0667 4.736 69.872C5.07733 68.592 5.71733 67.3547 6.656 66.16C7.59467 64.9653 8.87467 63.8133 10.496 62.704C15.104 59.632 18.7307 57.1573 21.376 55.28C24.0213 53.4027 26.5813 51.44 29.056 49.392C31.616 47.2587 33.4933 45.4667 34.688 44.016C35.8827 42.48 36.9493 40.7733 37.888 38.896C38.912 37.0187 39.552 35.1413 39.808 33.264C40.1493 31.3867 40.32 29.168 40.32 26.608C40.32 21.8293 38.8267 19.44 35.84 19.44C32.5973 19.44 30.976 22.256 30.976 27.888C30.976 31.0453 29.952 33.0933 27.904 34.032C25.856 34.9707 22.8267 35.44 18.816 35.44C13.3547 35.44 9.64267 34.2453 7.68 31.856C5.80267 29.4667 4.864 25.4987 4.864 19.952C4.864 14.4053 7.46667 9.79733 12.672 6.128C17.9627 2.37333 25.3013 0.495995 34.688 0.495995C57.8987 0.495995 69.504 9.328 69.504 26.992C69.504 31.088 69.0347 34.8427 68.096 38.256C67.1573 41.584 66.0053 44.4 64.64 46.704C63.2747 48.9227 61.3973 51.056 59.008 53.104C56.704 55.152 54.528 56.816 52.48 58.096C50.432 59.376 47.9147 60.7413 44.928 62.192Z" fill="#BB877A"/>
</g>
<defs>
<filter id="filter0_d_516_2886" x="0.224121" y="0.495972" width="73.6641" height="94.272" filterUnits="userSpaceOnUse" color-interpolation-filters="sRGB">
<feFlood flood-opacity="0" result="BackgroundImageFix"/>
<feColorMatrix in="SourceAlpha" type="matrix" values="0 0 0 0 0 0 0 0 0 0 0 0 0 0 0 0 0 0 127 0" result="hardAlpha"/>
<feOffset dy="4"/>
<feGaussianBlur stdDeviation="2"/>
<feComposite in2="hardAlpha" operator="out"/>
<feColorMatrix type="matrix" values="0 0 0 0 0 0 0 0 0 0 0 0 0 0 0 0 0 0 0.25 0"/>
<feBlend mode="normal" in2="BackgroundImageFix" result="effect1_dropShadow_516_2886"/>
<feBlend mode="normal" in="SourceGraphic" in2="effect1_dropShadow_516_2886" result="shape"/>
</filter>
</defs>
</svg>
